# Blender v2.92.0 OBJ File: 'table.blend'
# www.blender.org
o Plane_Plane.001
v -8.000000 -4.500000 0.000000
v 8.000000 -4.500000 0.000000
v -8.000000 4.500000 0.000000
v 8.000000 4.500000 0.000000
v -8.000000 4.500000 -0.327487
v -8.000000 -4.500000 -0.327487
v 8.000000 -4.500000 -0.327487
v 8.000000 4.500000 -0.327487
vt 0.107414 0.883500
vt 0.106901 0.116796
vt 0.884086 0.115979
vt 0.884086 0.115979
vt 0.106901 0.116796
vt 0.107414 0.883500
vt 0.883022 0.880747
vt 0.883022 0.880747
vn 0.0000 0.0000 1.0000
vn 0.0000 0.0000 -1.0000
vn 1.0000 0.0000 0.0000
vn -1.0000 0.0000 0.0000
vn 0.0000 1.0000 0.0000
vn 0.0000 -1.0000 0.0000
s off
f 3/1/1 1/2/1 2/3/1
f 7/4/2 6/5/2 5/6/2
f 4/7/3 2/3/3 7/4/3
f 1/2/4 3/1/4 5/6/4
f 3/1/5 4/7/5 8/8/5
f 2/3/6 1/2/6 6/5/6
f 3/1/1 2/3/1 4/7/1
f 7/4/2 5/6/2 8/8/2
f 4/7/3 7/4/3 8/8/3
f 1/2/4 5/6/4 6/5/4
f 3/1/5 8/8/5 5/6/5
f 2/3/6 6/5/6 7/4/6
o Cube_Cube.001
v -8.000000 -4.900000 0.000000
v -8.000000 -4.900000 0.800000
v -8.000000 -4.500000 0.000000
v -8.000000 -4.500000 0.800000
v 8.000000 -4.900000 0.000000
v 8.000000 -4.900000 0.800000
v 8.000000 -4.500000 0.000000
v 8.000000 -4.500000 0.800000
vt 0.589553 0.901321
vt 0.391953 0.925318
vt 0.459764 0.898630
vt 0.626541 0.938771
vt 0.391953 0.908957
vt 0.634247 0.900886
vt 0.373459 0.935645
vt 0.631165 0.916812
vt 0.381165 0.954261
vt 0.168153 0.932955
vt 0.134247 0.922410
vt 0.845718 0.922410
vt 0.655823 0.946190
vt 0.861129 0.959860
vn -1.0000 0.0000 0.0000
vn 0.0000 1.0000 0.0000
vn 1.0000 0.0000 0.0000
vn 0.0000 -1.0000 0.0000
vn 0.0000 0.0000 -1.0000
vn 0.0000 0.0000 1.0000
s off
f 10/9/7 11/10/7 9/11/7
f 12/12/8 15/13/8 11/10/8
f 16/14/9 13/15/9 15/13/9
f 14/16/10 9/17/10 13/15/10
f 15/13/11 9/18/11 11/19/11
f 12/20/12 14/16/12 16/14/12
f 10/9/7 12/12/7 11/10/7
f 12/12/8 16/14/8 15/13/8
f 16/14/9 14/16/9 13/15/9
f 14/16/10 10/21/10 9/17/10
f 15/13/11 13/15/11 9/18/11
f 12/20/12 10/22/12 14/16/12
o Cube.001_Cube.002
v -8.000000 4.500000 0.000000
v -8.000000 4.500000 0.800000
v -8.000000 4.900000 0.000000
v -8.000000 4.900000 0.800000
v 8.000000 4.500000 0.000000
v 8.000000 4.500000 0.800000
v 8.000000 4.900000 0.000000
v 8.000000 4.900000 0.800000
vt 0.594903 0.933898
vt 0.314806 0.943220
vt 0.394417 0.950847
vt 0.619175 0.894068
vt 0.348786 0.894915
vt 0.620146 0.903390
vt 0.355583 0.922881
vt 0.629854 0.921186
vt 0.370146 0.954237
vt 0.167718 0.951695
vt 0.144417 0.928814
vt 0.849757 0.913559
vt 0.627913 0.952542
vt 0.857524 0.934746
vn -1.0000 0.0000 0.0000
vn 0.0000 1.0000 0.0000
vn 1.0000 0.0000 0.0000
vn 0.0000 -1.0000 0.0000
vn 0.0000 0.0000 -1.0000
vn 0.0000 0.0000 1.0000
s off
f 18/23/13 19/24/13 17/25/13
f 20/26/14 23/27/14 19/24/14
f 24/28/15 21/29/15 23/27/15
f 22/30/16 17/31/16 21/29/16
f 23/27/17 17/32/17 19/33/17
f 20/34/18 22/30/18 24/28/18
f 18/23/13 20/26/13 19/24/13
f 20/26/14 24/28/14 23/27/14
f 24/28/15 22/30/15 21/29/15
f 22/30/16 18/35/16 17/31/16
f 23/27/17 21/29/17 17/32/17
f 20/34/18 18/36/18 22/30/18
